<svg width="24" height="32" viewBox="0 0 24 32" fill="none" xmlns="http://www.w3.org/2000/svg">
<path fill-rule="evenodd" clip-rule="evenodd" d="M10.4877 7.78769C11.4723 6.80312 12.8076 6.25 14.2 6.25H16.9C17.3142 6.25 17.65 6.58579 17.65 7V10.6C17.65 11.0142 17.3142 11.35 16.9 11.35H14.2C14.1602 11.35 14.1221 11.3658 14.0939 11.3939C14.0658 11.4221 14.05 11.4602 14.05 11.5V13.45H16.9C17.131 13.45 17.349 13.5564 17.4912 13.7384C17.6333 13.9205 17.6836 14.1578 17.6276 14.3819L16.7276 17.9819C16.6441 18.3158 16.3441 18.55 16 18.55H14.05V25C14.05 25.4142 13.7142 25.75 13.3 25.75H9.7C9.28579 25.75 8.95 25.4142 8.95 25V18.55H7C6.58579 18.55 6.25 18.2142 6.25 17.8V14.2C6.25 13.7858 6.58579 13.45 7 13.45H8.95V11.5C8.95 10.1076 9.50312 8.77226 10.4877 7.78769ZM14.2 7.75C13.2054 7.75 12.2516 8.14509 11.5483 8.84835C10.8451 9.55161 10.45 10.5054 10.45 11.5V14.2C10.45 14.6142 10.1142 14.95 9.7 14.95H7.75V17.05H9.7C10.1142 17.05 10.45 17.3858 10.45 17.8V24.25H12.55V17.8C12.55 17.3858 12.8858 17.05 13.3 17.05H15.4144L15.9394 14.95H13.3C12.8858 14.95 12.55 14.6142 12.55 14.2V11.5C12.55 11.0624 12.7238 10.6427 13.0333 10.3333C13.3427 10.0238 13.7624 9.85 14.2 9.85H16.15V7.75H14.2Z" fill="white"/>
</svg>
