<svg width="18" height="18" viewBox="0 0 18 18" fill="none" xmlns="http://www.w3.org/2000/svg">
<path fill-rule="evenodd" clip-rule="evenodd" d="M11.4635 12.5242C8.81325 14.6468 4.93381 14.4798 2.47703 12.023C-0.15901 9.38693 -0.15901 5.11307 2.47703 2.47703C5.11307 -0.15901 9.38693 -0.159009 12.023 2.47703C14.4798 4.93381 14.6468 8.81324 12.5242 11.4635L17.6798 16.6191C17.9727 16.912 17.9727 17.3869 17.6798 17.6798C17.3869 17.9727 16.912 17.9727 16.6191 17.6798L11.4635 12.5242ZM3.53769 10.9623C1.48744 8.91206 1.48744 5.58794 3.53769 3.53769C5.58794 1.48744 8.91206 1.48744 10.9623 3.53769C13.0111 5.58644 13.0126 8.90718 10.9668 10.9578C10.9653 10.9593 10.9638 10.9608 10.9623 10.9623C10.9608 10.9638 10.9593 10.9653 10.9578 10.9668C8.90719 13.0126 5.58644 13.0111 3.53769 10.9623Z" fill="white"/>
</svg>
